<?xml version="1.0" standalone="no"?>
<!DOCTYPE svg PUBLIC "-//W3C//DTD SVG 20010904//EN"
 "http://www.w3.org/TR/2001/REC-SVG-20010904/DTD/svg10.dtd">
<svg version="1.0" xmlns="http://www.w3.org/2000/svg"
 width="675.000000pt" height="675.000000pt" viewBox="0 0 675.000000 675.000000"
 preserveAspectRatio="xMidYMid meet">
<metadata>
Created by potrace 1.14, written by Peter Selinger 2001-2017
</metadata>
<g transform="translate(0.000000,675.000000) scale(0.100000,-0.100000)"
fill="#000000" stroke="none">
<path d="M3307 5865 c-21 -63 -44 -115 -50 -116 -7 0 -63 -1 -125 -1 -129 0
-129 7 2 -88 41 -30 76 -62 76 -70 0 -14 -33 -129 -47 -160 -8 -20 -10 -27
-12 -47 -1 -16 -3 -15 -14 3 -7 12 -20 20 -29 19 -10 -2 -26 8 -37 21 -20 25
-41 32 -41 13 0 -8 -6 -7 -17 2 -15 13 -15 12 -4 -9 7 -12 16 -20 20 -18 4 3
8 -1 8 -9 0 -10 -8 -9 -31 7 l-31 22 25 -29 25 -28 -25 12 c-24 12 -24 11 3
-11 31 -27 35 -40 10 -31 -12 4 -9 -1 7 -15 18 -15 21 -22 10 -22 -8 -1 -5 -5
9 -11 17 -7 22 -15 18 -30 -4 -15 0 -23 14 -26 10 -3 16 -9 13 -14 -3 -5 1 -9
8 -9 9 0 9 -3 -2 -10 -12 -8 -11 -10 8 -10 12 0 22 -4 22 -10 0 -5 7 -10 16
-10 12 0 15 -6 11 -21 -5 -17 -2 -20 13 -16 18 5 21 -8 7 -30 -6 -9 1 -13 25
-14 l33 -2 -35 -7 c-19 -4 -27 -8 -18 -9 9 0 20 -6 24 -13 5 -8 1 -9 -12 -5
-15 5 -14 3 4 -9 12 -9 22 -21 22 -27 0 -6 8 -19 17 -29 16 -18 16 -18 0 -12
-9 3 -17 11 -17 16 0 6 -7 7 -16 4 -8 -3 -12 -2 -9 3 10 16 -29 17 -43 1 -8
-8 -11 -10 -8 -4 7 14 -31 26 -39 14 -3 -5 -22 -2 -43 7 l-37 15 20 -23 20
-23 -32 22 c-33 23 -59 29 -47 11 3 -6 -8 -4 -24 5 -31 16 -67 12 -56 -5 3 -5
-10 -7 -29 -5 -40 5 -52 -1 -37 -19 8 -9 4 -12 -16 -9 -14 1 -23 -1 -19 -4 7
-7 9 -8 48 -12 16 -2 13 -4 -13 -10 l-35 -7 35 -2 c29 -2 32 -4 15 -11 -18 -8
-17 -9 8 -9 16 -1 37 4 48 9 31 17 22 4 -13 -19 l-33 -22 40 7 c22 4 37 3 32
-2 -4 -4 -17 -9 -30 -11 -12 -2 -26 -8 -32 -14 -7 -7 -4 -8 10 -4 12 3 10 0
-5 -7 -14 -7 -29 -18 -33 -25 -4 -7 -16 -13 -25 -14 -14 0 -13 -2 3 -9 18 -8
18 -9 -5 -10 -17 -2 -19 -4 -8 -7 10 -2 15 -10 11 -19 -4 -12 -1 -13 21 -4 18
6 25 6 21 0 -4 -6 5 -10 20 -10 14 0 28 -7 31 -15 4 -8 11 -12 18 -8 6 3 8 2
3 -2 -4 -5 0 -19 8 -32 19 -28 15 -29 -38 -2 -30 16 -38 18 -29 6 11 -13 10
-15 -9 -10 -16 5 -20 3 -15 -6 5 -8 3 -11 -5 -10 -20 3 -69 -12 -69 -21 0 -5
-8 -11 -17 -14 -10 -3 -4 -4 13 -2 23 1 31 -1 27 -11 -3 -7 -10 -13 -17 -12
-24 3 -37 -1 -32 -10 4 -5 21 -7 39 -4 38 6 34 -4 -6 -11 -40 -7 -50 -15 -37
-31 7 -8 9 -19 6 -24 -4 -5 -2 -12 4 -16 6 -4 8 -10 6 -14 -3 -4 6 -14 20 -21
18 -10 21 -16 12 -22 -10 -6 -9 -8 3 -8 9 0 23 -8 30 -17 12 -14 12 -16 -1 -9
-13 7 -13 6 0 -6 8 -7 22 -22 30 -32 14 -18 13 -19 -2 -13 -10 3 -20 2 -24 -4
-3 -6 -19 0 -39 15 -39 30 -47 32 -38 9 5 -12 -3 -9 -29 10 -36 28 -54 35 -43
17 4 -6 -3 -6 -21 0 -25 10 -26 9 -13 -7 12 -15 12 -16 -5 -10 -10 4 -25 2
-34 -5 -12 -10 -14 -10 -8 -1 5 9 2 11 -10 6 -13 -5 -15 -3 -9 7 5 9 4 11 -4
6 -6 -4 -9 -12 -5 -17 3 -6 -4 -13 -17 -16 -21 -6 -19 -8 16 -19 l40 -13 -37
2 c-46 3 -40 -10 10 -20 l37 -7 -35 -8 c-24 -5 -15 -6 30 -3 l65 3 -35 -16
-35 -16 33 -4 c20 -2 30 -7 26 -14 -5 -8 -1 -9 11 -4 15 5 16 4 5 -9 -11 -13
-10 -14 5 -9 12 5 16 4 12 -3 -4 -6 1 -10 10 -9 10 0 24 -13 35 -34 26 -53 22
-56 -22 -16 -42 38 -70 41 -48 6 8 -12 15 -15 19 -9 4 8 9 8 13 1 12 -20 -20
-19 -43 2 l-24 21 19 -32 c10 -18 23 -33 29 -33 5 0 2 -5 -8 -11 -14 -8 -16
-14 -7 -24 10 -12 6 -13 -22 -5 -72 21 -64 8 13 -20 l54 -20 -50 5 -50 4 40
-14 c34 -11 36 -14 15 -15 -18 -2 -20 -4 -7 -7 20 -5 23 -23 4 -23 -7 0 -18
-5 -25 -12 -7 -7 -34 -11 -64 -9 -33 1 -60 -3 -72 -12 -17 -12 -18 -19 -8 -56
l10 -43 -21 19 c-19 17 -20 17 -14 1 8 -22 8 -22 -31 -2 -34 17 -57 11 -48
-12 5 -12 1 -12 -17 -4 -16 8 -14 4 8 -14 l30 -26 -32 9 c-43 12 -43 3 0 -12
l32 -11 -27 -6 -28 -5 25 -12 c16 -7 23 -7 18 -1 -4 7 -1 8 6 3 9 -5 9 -11 3
-17 -7 -7 -4 -17 9 -31 22 -25 17 -36 -8 -16 -16 13 -17 12 -5 -3 8 -9 11 -21
8 -26 -3 -5 10 -20 29 -33 23 -16 31 -27 24 -35 -6 -8 0 -15 21 -24 30 -13 44
-35 14 -23 -14 5 -13 3 2 -15 10 -12 25 -22 34 -23 10 0 9 -3 -5 -9 -18 -8
-18 -9 -2 -9 10 -1 15 -5 12 -11 -3 -5 -1 -10 5 -10 6 0 8 -5 4 -12 -5 -8 -2
-9 9 -5 10 3 17 2 17 -3 0 -6 -6 -10 -12 -10 -8 -1 -7 -5 4 -13 17 -13 19 -40
4 -54 -4 -4 -6 -1 -4 7 2 9 -5 14 -18 15 -11 0 -28 6 -38 14 -15 12 -16 12 -9
-5 6 -16 5 -17 -9 -6 -21 17 -58 24 -58 10 0 -5 6 -8 14 -5 8 3 20 -2 28 -11
11 -15 11 -15 -3 -5 -9 7 -19 10 -22 7 -3 -3 -18 3 -34 14 -15 10 -39 18 -52
16 -13 -3 -29 0 -35 4 -20 16 -48 23 -40 10 5 -8 -2 -9 -22 -4 -23 5 -25 4
-11 -4 9 -6 17 -16 17 -22 0 -7 -4 -7 -12 0 -17 13 -67 12 -75 -1 -4 -6 -1 -7
8 -2 12 8 12 6 0 -9 -8 -9 -21 -14 -30 -11 -11 4 -13 3 -6 -4 6 -5 26 -14 45
-19 l35 -10 -50 -2 -50 -2 40 -8 c22 -4 44 -5 49 -2 5 3 6 0 2 -6 -4 -7 -18
-12 -32 -12 -13 0 -24 -4 -24 -9 0 -5 15 -6 34 -1 26 6 36 4 46 -10 7 -10 21
-17 32 -15 10 2 18 -1 18 -6 0 -6 8 -8 18 -5 12 4 19 1 19 -8 0 -8 -6 -12 -13
-9 -6 2 -15 0 -18 -5 -7 -11 34 -9 52 2 8 5 10 2 6 -9 -5 -13 -2 -14 20 -5 17
6 25 6 21 0 -3 -5 7 -9 22 -9 15 -1 42 -2 58 -4 17 -2 36 -5 44 -5 11 -2 11
-5 1 -17 -11 -14 -10 -14 14 -6 18 8 26 7 26 0 0 -8 5 -7 15 1 13 11 14 10 8
-5 -5 -15 -3 -17 12 -12 15 6 16 5 5 -7 -11 -14 -14 -14 -27 -1 -16 17 -23 19
-23 7 0 -5 19 -28 43 -52 l42 -44 -40 29 c-22 16 -43 34 -47 39 -5 7 -8 5 -8
-4 0 -13 -1 -13 -10 0 -8 13 -10 13 -10 -2 0 -11 -5 -15 -15 -12 -8 4 -15 2
-15 -3 0 -15 -55 -42 -91 -44 -21 -1 -49 7 -74 22 -42 25 -106 34 -98 13 8
-22 -16 -25 -27 -3 -22 39 -21 11 0 -33 l21 -43 -37 40 c-20 22 -33 35 -30 28
4 -7 0 -23 -9 -37 -12 -18 -13 -26 -4 -32 8 -5 9 -3 4 6 -5 8 -4 11 3 6 6 -4
8 -14 5 -23 -4 -9 1 -22 13 -31 18 -13 17 -14 -11 -9 -16 4 -24 4 -17 1 7 -3
17 -15 23 -26 8 -15 8 -19 0 -14 -18 11 -13 1 14 -28 13 -14 32 -26 42 -27 16
0 16 -1 -1 -8 -15 -6 -16 -10 -7 -16 11 -6 11 -9 0 -16 -10 -6 -7 -10 11 -17
21 -8 17 -10 -31 -17 -29 -4 -49 -9 -42 -12 17 -6 4 -33 -21 -44 -15 -6 -6 -7
29 -3 56 6 56 1 -1 -20 -27 -10 -32 -15 -17 -15 12 -1 33 3 47 9 36 13 32 4
-6 -20 -18 -11 -29 -20 -25 -20 15 0 96 40 102 50 3 5 11 10 17 10 6 0 -1 -11
-16 -25 -26 -24 -38 -56 -13 -38 6 5 26 15 42 22 l30 13 -24 -26 c-14 -14 -19
-26 -13 -26 7 0 12 4 12 9 0 5 7 12 16 15 12 5 15 2 10 -9 -3 -9 -2 -14 2 -11
4 2 15 -1 24 -8 14 -10 13 -14 -13 -28 -27 -16 -29 -15 -55 4 l-27 21 13 -24
c13 -24 13 -24 -8 -6 -11 10 -26 19 -34 21 -7 1 -19 5 -25 9 -21 13 -15 -5 10
-31 l22 -24 -40 23 c-22 13 -42 26 -45 30 -3 3 -16 9 -30 13 -14 4 -20 4 -15
-1 6 -4 17 -17 25 -27 11 -14 3 -11 -30 9 -31 20 -58 29 -87 30 -43 0 -43 0
-20 -17 22 -17 21 -17 -24 -14 -26 2 -53 -1 -60 -6 -11 -8 -10 -8 4 -4 10 3
15 2 12 -4 -3 -5 -22 -12 -43 -16 l-37 -7 48 -13 c67 -17 69 -24 7 -24 -29 0
-51 -2 -49 -4 4 -4 61 -13 99 -17 8 0 -5 -7 -30 -15 l-45 -13 60 5 c32 3 64 8
70 12 16 10 36 11 30 2 -3 -5 -18 -11 -33 -15 -16 -3 -29 -13 -29 -21 0 -8 6
-13 12 -10 7 2 18 -1 25 -7 10 -9 11 -9 6 1 -4 6 -2 12 3 12 16 0 13 -20 -4
-26 -8 -4 -12 -10 -9 -15 3 -5 9 -7 13 -4 5 2 6 -6 4 -19 -3 -13 0 -27 6 -30
6 -4 11 -12 11 -18 0 -6 -10 -3 -22 8 -18 15 -20 16 -9 2 7 -10 10 -25 7 -34
-4 -11 7 -29 33 -55 40 -41 42 -46 10 -29 -28 16 -23 5 16 -36 27 -27 33 -39
25 -49 -8 -10 -5 -17 12 -30 l23 -17 -25 7 c-21 5 -22 4 -8 -5 10 -6 18 -20
18 -30 0 -11 4 -19 9 -17 5 1 9 -2 9 -7 0 -5 6 -13 14 -18 10 -8 10 -9 -2 -5
-8 2 -14 10 -12 16 1 7 -2 10 -8 6 -7 -4 -7 -12 0 -25 20 -37 10 -32 -20 8
-35 48 -44 53 -30 16 16 -42 11 -41 -15 1 -24 39 -36 34 -15 -6 6 -10 8 -19 6
-19 -3 0 -14 17 -25 38 -24 45 -26 39 -6 -18 18 -50 19 -63 3 -35 -39 73 -60
106 -65 102 -2 -3 3 -19 12 -37 9 -18 15 -34 12 -36 -2 -2 -25 17 -52 43 -27
27 -43 38 -37 26 15 -28 15 -36 0 -27 -7 4 -8 3 -4 -5 4 -6 13 -8 19 -5 7 4 9
3 4 -1 -4 -5 -1 -18 6 -29 25 -39 28 -63 4 -32 -28 37 -86 97 -112 116 -19 14
-19 14 -5 -5 8 -11 23 -30 34 -42 30 -35 15 -36 -34 -3 -57 38 -86 39 -34 2
71 -52 75 -66 9 -38 -71 32 -83 27 -21 -9 45 -26 66 -46 27 -25 -25 13 -34 13
-25 -1 4 -8 0 -9 -15 -4 -11 3 -21 4 -21 1 0 -3 15 -10 33 -15 l32 -9 -30 -2
c-29 -1 -29 -2 -7 -12 12 -6 22 -16 22 -22 0 -6 -5 -5 -12 2 -15 15 -31 16
-22 0 5 -7 3 -8 -7 -2 -24 14 -42 14 -30 0 9 -10 3 -13 -29 -11 -43 2 -54 -9
-19 -20 11 -4 18 -9 16 -12 -3 -2 -19 3 -37 12 -17 9 -37 14 -43 11 -7 -2 -4
-5 5 -5 9 -1 20 -6 24 -13 5 -8 2 -9 -9 -5 -10 3 -17 2 -17 -2 0 -5 6 -12 13
-14 6 -3 -1 -6 -18 -7 -26 -1 -27 -3 -10 -10 14 -6 15 -9 5 -10 -9 0 -6 -6 10
-14 14 -8 29 -12 34 -8 5 3 7 -2 3 -12 -4 -11 -3 -15 4 -10 6 4 15 1 19 -6 6
-9 15 -8 38 4 27 14 31 14 26 1 -7 -18 7 -20 24 -3 9 9 12 9 12 0 0 -7 5 -12
11 -12 5 0 8 4 5 8 -3 5 1 9 9 9 8 0 12 -4 9 -9 -3 -4 -1 -8 5 -8 5 0 13 5 16
10 5 8 11 7 21 -1 8 -6 14 -8 14 -4 0 4 6 3 13 -3 7 -6 28 -9 46 -6 26 4 31 3
25 -8 -5 -9 -2 -8 11 2 11 9 16 10 11 3 -11 -20 12 -15 24 5 11 16 11 16 6 -2
-5 -13 -2 -17 9 -12 23 8 13 -26 -18 -63 -15 -18 -27 -44 -27 -57 0 -14 -4
-23 -9 -20 -5 4 -7 -3 -4 -14 5 -19 4 -19 -33 -6 -52 18 -75 10 -43 -15 24
-19 23 -19 -26 -4 -60 18 -91 19 -101 3 -4 -7 -3 -8 4 -4 7 4 19 3 29 -2 12
-7 4 -9 -29 -8 -42 1 -45 0 -36 -17 9 -17 6 -18 -46 -15 -45 3 -53 2 -44 -9 6
-7 17 -13 26 -13 8 0 13 -3 10 -6 -3 -3 -33 2 -66 10 -74 20 -82 20 -57 -1 20
-15 20 -15 -2 -10 -13 3 -23 1 -23 -4 0 -5 -12 -4 -27 1 -26 9 -27 9 -9 -5 11
-8 29 -15 40 -15 48 0 -27 -20 -91 -24 -15 -1 -18 -4 -12 -13 7 -7 5 -13 -3
-16 -7 -2 3 -9 22 -16 l35 -11 -40 5 c-29 4 -36 3 -25 -4 12 -9 11 -11 -7 -11
-13 0 -23 -3 -23 -7 0 -5 23 -6 51 -4 63 4 59 -12 -7 -28 -63 -16 -49 -26 17
-12 28 6 54 10 56 7 2 -2 -15 -16 -39 -31 -28 -17 -34 -24 -18 -19 32 8 77 31
113 56 16 11 30 18 33 15 3 -3 -12 -17 -33 -31 -20 -14 -31 -26 -24 -26 10 0
9 -6 -5 -21 -19 -22 -19 -22 3 -10 12 6 25 16 28 21 4 6 10 8 15 5 5 -3 19 -1
30 5 19 10 20 10 8 -9 -7 -12 -16 -21 -19 -21 -4 0 -9 -7 -13 -15 -4 -11 4 -8
24 7 17 12 30 24 30 27 0 4 10 12 22 20 17 10 14 4 -11 -28 -18 -22 -28 -41
-23 -41 6 0 12 6 14 12 3 9 9 8 22 -5 10 -9 12 -17 6 -17 -6 0 -8 -5 -5 -10 4
-6 3 -10 -2 -9 -4 1 -15 1 -23 0 -13 -1 -13 -2 0 -11 12 -8 10 -10 -10 -11
l-25 -1 25 -7 c24 -7 24 -8 -9 -15 -29 -7 -32 -10 -17 -18 9 -5 24 -7 32 -4 9
3 12 1 9 -4 -3 -6 -14 -10 -23 -10 -9 -1 -28 -8 -42 -16 l-25 -15 30 6 30 6
-33 -22 c-41 -27 -41 -34 1 -13 l32 17 -25 -28 c-17 -20 -20 -26 -8 -22 10 3
19 0 22 -10 6 -14 12 -11 37 13 31 29 31 29 24 4 -7 -23 -7 -23 9 -7 10 9 21
15 26 12 4 -3 13 9 20 25 13 32 39 57 27 27 -13 -33 8 -16 25 21 10 20 16 29
13 19 -3 -10 -1 -16 4 -12 8 4 81 -31 81 -40 0 -2 -21 3 -47 11 -58 18 -46 3
22 -26 28 -11 40 -19 28 -16 -23 4 -33 -9 -11 -16 19 -7 -85 1 -109 8 -16 4
-29 -1 -47 -19 -40 -40 -21 -91 48 -132 13 -7 -7 -10 -71 -9 -125 1 -123 2
-123 -62 0 -35 5 -56 13 -59 9 -4 12 -61 10 -244 -1 -175 1 -242 10 -249 7 -6
107 -10 254 -9 133 1 240 0 238 -2 -2 -2 3 -10 11 -18 11 -12 12 -18 3 -29 -6
-8 -7 -14 -2 -14 5 0 9 -20 8 -45 -1 -33 2 -46 14 -49 9 -2 97 -23 195 -47
166 -39 183 -41 227 -30 27 7 54 14 61 15 7 2 33 8 57 15 24 7 52 10 62 8 12
-3 17 -1 12 6 -4 6 2 8 15 5 12 -3 22 -2 24 2 2 5 15 11 30 14 24 4 27 1 30
-27 l3 -31 160 -38 c334 -80 320 -78 378 -62 29 8 61 17 72 19 11 3 59 15 107
28 63 17 91 21 99 13 9 -8 10 -8 6 0 -4 8 6 14 28 18 19 4 36 6 37 5 2 -1 19
5 38 13 19 8 45 14 58 13 12 -1 22 1 22 5 0 9 89 -6 198 -35 54 -14 81 -13
127 5 14 5 25 8 25 5 0 -2 18 2 40 10 22 8 40 12 40 10 0 -3 11 0 24 5 16 6
27 5 35 -3 10 -9 12 -9 9 3 -2 8 3 14 10 12 7 -1 21 2 31 7 33 18 84 23 94 9
6 -10 7 -9 4 4 -5 13 3 18 34 23 37 6 39 9 39 42 0 34 1 35 34 30 19 -3 39 0
45 6 8 8 11 7 11 -1 0 -9 5 -10 19 -2 25 13 34 13 25 -1 -4 -8 -1 -8 14 0 12
6 43 11 69 10 26 -1 50 0 53 1 3 1 37 4 75 6 138 6 238 15 247 20 9 6 7 294
-2 294 -3 0 -7 48 -9 108 -2 59 -4 118 -5 132 -1 14 4 31 11 38 12 13 12 100
-1 120 -3 6 -46 8 -108 6 -84 -4 -99 -2 -83 8 61 37 74 78 42 129 -11 19 -22
40 -23 48 -1 7 -13 25 -26 40 l-23 26 25 -20 c14 -11 27 -22 30 -25 3 -3 19
-14 35 -24 l30 -19 -30 32 -30 33 30 -8 c17 -4 44 -13 60 -21 l30 -14 -23 20
c-13 12 -18 21 -10 23 6 2 -3 10 -20 17 -17 7 -33 19 -36 27 -4 10 9 6 37 -10
43 -25 127 -59 127 -51 0 3 -18 14 -40 25 -45 23 -51 31 -17 24 12 -2 42 -6
66 -9 46 -5 52 3 7 11 -31 5 -76 22 -76 28 0 2 20 3 45 1 25 -1 48 2 51 6 3 5
-12 9 -33 10 -32 1 -34 2 -13 8 21 6 22 8 8 14 -23 8 -23 24 0 30 16 4 -9 6
-80 9 -35 1 -35 4 -2 21 l26 14 -31 0 c-16 0 -28 -4 -25 -9 3 -4 -2 -5 -11 -2
-14 6 -14 8 2 21 10 8 12 12 5 8 -9 -4 -12 6 -12 37 0 62 -10 72 -67 70 -26
-1 -57 -3 -69 -6 -11 -2 -26 -1 -33 3 -7 5 11 10 43 14 30 3 62 10 72 15 15 8
15 9 0 15 -11 5 -15 3 -10 -5 4 -7 3 -8 -5 -4 -12 8 -5 29 7 22 4 -2 16 0 27
5 17 7 16 8 -8 8 -31 1 -28 21 4 21 10 0 19 5 19 10 0 6 10 15 23 20 20 8 20
9 2 10 -18 1 -18 2 4 14 22 12 22 13 5 20 -18 7 -17 9 6 26 35 28 21 25 -36
-7 -52 -29 -50 -18 6 35 29 27 9 20 -37 -14 -44 -33 -48 -30 -16 13 19 26 22
33 8 23 -31 -24 -74 -74 -75 -86 0 -7 -7 -15 -16 -18 -15 -6 -15 -4 0 19 9 14
14 31 10 37 -4 6 -3 8 2 5 6 -3 11 6 12 21 l2 27 -17 -25 c-31 -45 -74 -69
-53 -29 7 11 9 23 6 27 -3 3 -6 1 -6 -4 0 -6 -7 -19 -16 -30 -15 -19 -15 -18
-11 3 7 32 0 28 -18 -9 -10 -22 -14 -25 -11 -10 2 12 0 20 -5 16 -5 -3 -9 -11
-9 -19 0 -8 -5 -17 -11 -21 -8 -4 -9 1 -5 17 l7 24 -18 -21 c-10 -12 -23 -30
-30 -40 -11 -16 -12 -16 -7 -2 9 26 -11 22 -25 -4 l-12 -23 5 23 c2 12 0 20
-5 16 -5 -3 -9 -12 -9 -20 0 -8 -7 -17 -16 -21 -8 -3 -20 -17 -25 -30 -11 -30
-29 -22 -22 10 9 33 -5 16 -22 -29 l-15 -39 4 40 4 40 -15 -37 c-18 -43 -39
-52 -29 -13 4 15 2 25 -4 25 -6 0 -8 -5 -4 -12 4 -7 3 -8 -4 -4 -9 5 -7 14 4
31 9 14 14 31 11 39 -3 8 1 20 8 26 8 7 13 16 10 20 -3 5 1 11 7 14 7 3 3 3
-10 0 -23 -6 -23 -5 -5 15 9 12 27 21 38 22 20 0 20 0 0 10 -17 8 -16 9 8 6
28 -4 37 7 15 17 -7 3 6 3 30 0 35 -5 41 -3 36 9 -3 8 0 18 7 23 7 4 10 3 6
-3 -4 -6 0 -14 9 -17 10 -4 13 -2 8 6 -5 7 0 9 14 6 12 -4 20 -2 16 3 -3 5
-11 9 -19 9 -8 0 -17 5 -21 11 -4 7 0 9 12 6 11 -4 33 -9 49 -12 28 -5 28 -4
-5 9 -19 8 -29 15 -22 16 6 2 17 4 22 5 6 1 18 3 28 4 31 2 21 26 -11 28 -17
1 -35 7 -40 12 -8 8 50 6 79 -4 6 -2 26 0 45 5 l34 8 -37 1 c-52 1 -47 15 10
28 l47 11 -55 -3 -55 -3 49 23 c49 21 49 22 23 29 -15 3 -25 11 -22 16 4 6 -1
7 -11 3 -13 -5 -15 -3 -9 8 7 12 6 12 -7 1 -8 -7 -22 -10 -31 -6 -8 3 -18 1
-22 -5 -3 -6 -13 -11 -22 -11 -11 0 -10 4 6 18 22 17 22 17 -12 17 -18 0 -45
-8 -59 -17 -14 -9 -34 -15 -44 -14 -10 2 -39 -13 -64 -33 -25 -19 -36 -26 -26
-13 26 30 14 39 -14 10 -13 -13 -20 -17 -16 -10 4 6 2 12 -3 12 -16 0 -9 24 9
32 8 5 -1 5 -20 2 l-35 -5 25 15 c14 8 32 19 40 23 8 4 22 14 30 22 13 13 11
14 -15 7 -22 -5 -16 1 25 25 30 18 49 34 43 36 -7 3 -13 9 -13 14 0 6 6 7 13
3 6 -4 9 -4 5 1 -4 4 0 14 10 22 15 13 15 13 -5 4 -36 -18 -36 -13 -3 29 17
22 25 38 17 35 -19 -8 -43 20 -26 31 8 5 9 3 4 -6 -6 -9 -4 -11 5 -5 9 6 11 4
5 -5 -5 -9 -4 -11 4 -6 9 6 9 11 1 21 -6 7 -7 21 -4 31 4 11 -6 2 -22 -18 -38
-49 -50 -48 -24 1 12 25 16 42 10 46 -6 4 -9 3 -8 -2 3 -10 -29 -70 -42 -78
-5 -3 -5 7 1 25 6 17 9 37 6 44 -4 10 4 17 25 22 l32 6 -27 15 c-15 7 -27 16
-27 19 0 3 5 2 11 -2 19 -12 79 -22 73 -13 -3 5 -14 9 -24 9 -10 0 -21 4 -24
8 -3 5 20 8 50 8 42 -1 51 2 39 10 -8 6 -11 14 -7 18 4 5 0 7 -8 6 -28 -4 -60
0 -60 8 0 4 35 6 77 6 43 -1 63 0 46 3 -37 5 -45 23 -10 23 12 0 29 5 37 10
11 7 0 9 -35 6 l-50 -4 53 24 c28 13 52 26 52 29 0 3 -9 1 -21 -5 -11 -7 -28
-9 -37 -5 -15 6 -15 8 2 21 24 17 13 19 -17 2 -20 -10 -21 -10 -9 5 12 14 11
15 -15 8 -15 -5 -37 -12 -48 -17 -20 -7 -20 -7 -1 14 23 26 16 28 -27 5 -30
-15 -31 -15 -18 0 25 31 -6 17 -50 -22 -36 -31 -45 -35 -45 -21 0 10 4 17 7
14 4 -2 10 0 14 6 11 18 -23 11 -37 -8 -7 -9 -26 -26 -43 -36 -30 -19 -30 -19
-12 1 20 23 23 38 5 26 -7 -4 -16 -8 -20 -8 -3 0 -10 -4 -15 -9 -5 -5 -2 -6 6
-1 10 5 12 4 7 -4 -4 -6 -11 -9 -16 -6 -5 3 -13 -3 -19 -12 -10 -17 -10 -17
-11 -1 0 12 -5 15 -17 11 -10 -3 -15 -3 -11 1 3 4 14 9 25 11 29 6 29 6 8 16
-20 9 -20 9 0 6 11 -2 27 3 35 11 12 13 11 15 -8 10 -34 -9 -26 8 13 26 36 17
62 45 32 33 -10 -3 -17 -2 -17 3 0 5 8 11 18 14 9 3 31 17 47 32 21 17 23 22
8 15 -36 -18 -36 -13 -1 20 22 21 26 27 11 20 -33 -17 -35 -14 -12 18 12 16
19 34 15 39 -3 6 -2 14 4 17 8 5 8 11 0 20 -7 8 -9 20 -5 27 4 7 -7 -2 -24
-19 -40 -43 -48 -42 -22 3 28 48 20 56 -9 9 -26 -43 -37 -39 -21 7 9 24 9 30
0 21 -6 -6 -20 -40 -30 -75 -14 -44 -18 -52 -15 -25 4 34 3 36 -15 27 -10 -6
-19 -17 -19 -25 0 -24 -18 -17 -23 8 -3 14 -5 7 -7 -18 -2 -39 -3 -39 -10 -10
-7 28 -8 28 -9 5 -1 -20 -3 -22 -11 -10 -7 11 -10 6 -11 -20 -1 -32 -2 -33 -9
-10 -4 14 -9 19 -10 13 -1 -7 -4 -17 -5 -23 -1 -5 -3 -14 -4 -18 -2 -11 -41
-13 -41 -2 0 6 -10 6 -25 0 -18 -7 -24 -6 -22 3 1 8 -11 12 -34 12 -28 -1 -35
3 -31 14 3 8 1 12 -5 8 -5 -3 -10 0 -10 8 0 8 10 16 21 16 17 1 18 2 4 6 -19
5 -25 22 -8 24 6 1 13 3 18 4 4 1 21 6 39 10 17 4 34 14 37 22 3 8 10 12 15 9
5 -3 22 1 37 10 l29 16 -30 -6 c-25 -5 -27 -4 -12 5 10 6 27 9 36 6 20 -5 25
23 7 35 -6 4 9 10 34 14 39 6 41 8 20 16 -12 5 -33 9 -46 10 -40 4 -17 14 36
16 29 1 59 6 68 11 12 7 7 9 -21 7 -43 -4 -42 0 11 26 35 17 32 18 -33 2 -11
-3 -3 5 17 18 21 13 38 27 38 32 0 6 -5 5 -12 -2 -14 -14 -32 -16 -24 -3 3 5
0 13 -7 19 -8 7 -24 5 -51 -9 -35 -17 -41 -17 -56 -4 -15 13 -19 12 -39 -9
-13 -14 -31 -23 -42 -21 -11 2 -23 -4 -29 -16 -6 -10 -16 -19 -23 -19 -8 0 -7
3 2 9 8 5 12 18 8 30 -3 12 -2 19 3 16 12 -7 20 21 9 32 -6 6 -4 14 6 23 17
14 21 35 4 25 -6 -4 -5 2 2 13 7 12 17 18 23 15 5 -4 7 1 3 11 -6 14 -4 15 16
5 21 -11 21 -10 -3 16 l-25 28 30 -19 c27 -17 29 -17 16 -1 -13 16 -12 17 15
7 l29 -11 -25 26 -25 27 40 -23 c30 -17 37 -19 26 -6 -15 19 -11 20 44 7 36
-8 38 -7 21 6 -23 17 -13 19 16 3 18 -10 20 -9 14 6 -5 13 -2 16 9 11 8 -3 22
-9 30 -12 8 -3 16 -1 16 5 3 26 4 30 11 36 4 4 21 0 37 -8 17 -9 31 -12 31 -7
0 5 -6 10 -12 13 -28 10 1 16 32 7 32 -9 33 -9 14 8 -10 10 -28 21 -38 25 -10
4 -16 10 -13 13 3 3 14 1 25 -5 12 -6 38 -11 59 -10 l38 1 -32 9 c-18 5 -33
11 -33 13 0 1 19 3 42 4 56 3 62 12 7 13 -24 1 -36 3 -26 6 9 2 15 8 12 12 -2
5 8 7 23 5 15 -2 19 -1 9 2 -12 4 -16 11 -13 21 5 13 4 13 -7 4 -11 -9 -17 -8
-26 2 -6 9 -22 12 -39 9 -26 -4 -26 -4 -7 12 19 15 18 15 -13 6 -31 -8 -32 -8
-20 8 8 10 -7 5 -37 -13 -30 -17 -45 -22 -36 -12 19 24 3 21 -49 -9 -34 -20
-40 -21 -27 -6 16 18 16 19 -1 17 -25 -1 -43 -15 -37 -26 3 -5 -1 -6 -10 -3
-13 5 -13 9 -3 23 8 11 5 10 -10 -3 -12 -11 -22 -16 -22 -11 0 4 -7 2 -15 -5
-8 -7 -15 -9 -15 -5 0 4 -8 1 -17 -6 -16 -12 -17 -12 -6 2 7 9 10 19 6 23 -4
4 -1 11 7 16 11 7 12 11 0 24 -11 14 -10 16 4 10 11 -4 16 -1 16 10 0 9 7 19
16 23 13 5 13 7 2 14 -10 7 -11 9 0 9 7 0 10 5 6 12 -4 7 -3 8 5 4 6 -4 19 1
29 10 16 17 16 17 -7 11 -22 -6 -23 -5 -5 12 11 10 22 17 26 15 13 -8 20 18 7
27 -11 7 -11 9 2 9 8 0 26 12 40 27 13 14 17 22 9 18 -9 -5 -7 1 5 15 17 20
18 23 3 17 -23 -8 -23 -1 2 33 17 24 18 29 5 40 -7 6 -11 19 -8 28 3 9 -7 4
-21 -13 l-27 -30 15 40 c13 33 13 36 1 20 -8 -11 -21 -29 -30 -40 -14 -19 -15
-18 -5 9 6 16 8 31 6 33 -3 3 -10 -14 -17 -37 -12 -40 -13 -41 -25 -18 l-12
22 -4 -24 c-1 -13 -10 -25 -18 -27 -12 -4 -12 -3 -2 5 24 17 -12 22 -43 6 -22
-11 -30 -12 -46 -1 -10 8 -16 17 -12 20 10 11 12 97 1 97 -5 0 -6 5 -3 10 4 6
-6 10 -22 11 l-28 1 25 8 c18 6 20 8 7 9 -10 1 -15 6 -12 11 4 6 3 10 -2 9 -4
-1 -16 -1 -27 0 -16 1 -17 3 -5 18 10 11 10 14 2 9 -24 -14 -33 4 -16 32 l17
27 -29 -25 c-15 -14 -25 -19 -20 -11 4 8 9 25 11 38 2 21 0 22 -14 11 -9 -7
-26 -21 -37 -32 -17 -18 -20 -18 -23 -4 -2 9 4 30 12 46 8 16 12 33 8 37 -4 5
1 5 11 2 9 -4 17 -2 17 3 0 6 10 10 23 10 18 0 19 2 7 10 -12 7 -8 10 15 10
19 0 38 8 49 21 18 22 18 22 -3 16 -13 -3 -19 -1 -15 5 4 5 17 8 30 5 14 -2
27 0 30 4 3 5 -3 9 -13 10 -12 0 -9 4 10 11 15 5 27 13 27 18 0 5 -12 11 -27
13 -22 3 -19 4 12 6 22 1 49 7 60 12 19 9 18 9 -2 5 -33 -6 -28 9 7 24 45 19
30 23 -21 5 -43 -14 -42 -12 8 23 17 13 17 13 -1 7 -14 -4 -17 -1 -12 10 3 9
2 13 -4 10 -6 -3 -10 -1 -10 5 0 7 -14 4 -35 -9 -35 -21 -45 -17 -22 9 10 12
9 12 -5 1 -9 -7 -21 -10 -26 -8 -11 7 -23 -2 -51 -38 -22 -28 -23 -28 -18 -6
6 23 5 23 -24 -5 -16 -15 -29 -23 -29 -17 0 6 -10 9 -22 7 -17 -3 -15 -1 7 10
20 10 24 15 13 16 -22 0 -23 9 -1 25 13 9 13 14 3 20 -9 5 -11 4 -6 -3 4 -7 2
-12 -3 -12 -19 0 -12 22 8 27 11 3 22 12 25 20 3 7 2 11 -3 8 -5 -3 -12 -1
-16 5 -3 5 1 10 9 10 8 0 17 4 20 8 3 5 -9 7 -27 5 -26 -3 -28 -1 -12 6 14 7
16 10 4 10 -8 1 -21 -5 -28 -11 -11 -10 -13 -10 -7 0 5 8 1 12 -11 12 -11 0
-24 5 -31 12 -8 8 -15 8 -28 -3 -10 -8 -15 -9 -11 -2 4 7 0 14 -10 17 -15 4
-15 5 2 4 51 -1 61 2 45 13 -12 9 -11 10 8 6 12 -3 20 -2 17 2 -9 16 27 51 53
51 21 0 24 2 12 10 -8 5 -26 10 -39 10 -39 0 -20 8 34 15 56 6 72 15 29 15
l-29 1 33 14 c41 18 41 26 0 14 -17 -5 -34 -6 -37 -4 -2 3 1 5 8 5 7 0 10 4 7
9 -8 12 53 73 65 65 15 -9 10 1 -11 26 -16 18 -17 25 -8 32 10 5 8 8 -4 8 -10
0 -18 7 -18 15 0 8 3 15 8 15 4 0 8 11 8 25 2 21 -1 23 -12 15 -17 -15 -37 -3
-29 18 4 11 -3 8 -21 -8 -23 -21 -26 -22 -20 -6 7 19 6 19 -13 2 -13 -12 -21
-14 -26 -6 -4 7 -11 8 -18 2 -7 -6 -23 -10 -37 -11 -14 0 -34 -2 -45 -3 -14
-2 -21 4 -23 20 -2 15 2 22 12 22 9 0 16 7 16 16 0 9 5 12 13 8 9 -6 9 -5 0 7
-14 18 3 44 38 58 17 7 19 10 7 10 -28 1 -21 18 12 30 17 5 30 12 30 15 0 3
-12 1 -26 -4 -37 -15 -37 -13 -2 21 l33 30 -30 -17 -30 -18 25 28 c23 26 23
28 3 18 -17 -10 -22 -9 -27 5 -6 14 -9 13 -29 -6 -24 -21 -43 -29 -32 -12 7
13 -58 9 -67 -3 -4 -6 -12 -5 -21 2 -12 10 -18 9 -31 -3 -9 -9 -16 -13 -16 -8
0 4 -4 3 -8 -2 -4 -6 -20 -8 -37 -4 -16 4 -22 7 -12 8 10 0 15 6 12 11 -3 6 4
10 17 11 22 0 22 1 3 9 -18 8 -18 9 5 10 22 1 23 2 6 9 -17 6 -14 10 20 24 21
9 33 16 27 16 -18 1 17 41 37 42 10 0 9 3 -5 9 -14 6 -16 9 -5 10 8 2 18 2 23
1 4 0 7 3 7 9 0 6 -6 10 -12 11 -7 0 -4 4 7 9 11 5 14 9 7 9 -11 1 -11 3 0 14
7 8 20 16 28 20 9 3 6 6 -10 6 -24 1 -24 2 8 22 36 23 44 36 11 19 -28 -15
-37 -5 -10 12 12 7 21 17 21 22 0 5 -8 2 -18 -7 -28 -25 -39 -20 -14 6 l22 23
-35 -4 c-21 -3 -41 -13 -50 -25 -8 -12 -15 -16 -15 -9 0 36 -49 -19 -51 -57 0
-12 -2 -11 -9 4 -7 18 -8 18 -15 -7 -4 -16 -12 -25 -18 -21 -6 4 -8 0 -4 -10
3 -10 2 -17 -3 -17 -15 0 -60 -46 -60 -61 0 -11 -2 -11 -10 1 -8 12 -10 10
-10 -10 0 -20 -2 -22 -10 -10 -8 12 -10 9 -10 -11 0 -16 -7 -30 -17 -34 -14
-5 -15 -4 -6 6 7 7 9 19 5 28 -11 23 -9 46 6 64 9 10 10 17 2 22 -6 3 -7 12
-3 18 15 25 12 37 -7 27 -16 -9 -18 -7 -13 12 3 13 6 39 7 60 0 20 4 39 8 43
11 11 -3 36 -16 28 -6 -4 -5 1 3 10 19 23 24 22 81 -19 27 -20 50 -34 50 -32
0 2 -17 56 -38 120 l-38 116 93 68 c51 38 93 72 93 76 0 3 -39 7 -87 7 -168
-1 -144 -15 -187 116 -20 63 -38 115 -39 115 -2 0 -20 -52 -40 -115z m-22
-422 c-2 -10 -4 -22 -4 -28 -1 -5 -5 -4 -9 2 -5 8 -8 -1 -8 -21 0 -19 4 -32 8
-30 4 3 3 -7 -2 -21 -6 -15 -7 -31 -4 -37 5 -7 2 -8 -6 -3 -9 6 -10 2 -5 -16
17 -54 17 -55 2 -37 -8 10 -17 15 -20 11 -4 -3 -7 1 -7 11 0 9 -4 15 -9 12 -5
-3 -12 6 -16 22 -7 25 -8 25 -15 7 -6 -17 -8 -15 -15 14 -5 25 -10 30 -17 20
-8 -12 -9 -12 -6 1 4 12 121 110 133 110 2 0 2 -8 0 -17z m-55 -393 c-12 -8
-12 -10 5 -11 11 0 14 -3 7 -6 -7 -3 -10 -10 -5 -17 4 -7 0 -3 -9 7 -10 11
-18 23 -18 28 0 5 8 9 18 9 14 0 15 -2 2 -10z m333 -37 c-7 -2 -19 -2 -25 0
-7 3 -2 5 12 5 14 0 19 -2 13 -5z m-688 -392 c-12 -10 -65 -24 -65 -16 0 2 15
9 33 14 43 12 42 12 32 2z m578 -24 c-3 -5 -10 -4 -15 1 -6 6 -7 16 -3 22 6 9
9 9 16 -1 4 -7 5 -17 2 -22z m36 14 c1 9 8 16 16 16 13 0 13 -3 -2 -19 -22
-24 -33 -23 -32 5 0 21 1 21 9 2 6 -15 9 -16 9 -4z m281 6 c0 -2 -10 -12 -22
-23 -14 -12 -18 -13 -10 -3 6 9 9 19 5 22 -3 4 1 7 10 7 10 0 17 -2 17 -3z
m-859 -45 c26 -17 27 -44 2 -49 -15 -3 -17 13 -3 22 6 4 8 11 4 16 -3 5 -10 7
-15 4 -5 -4 -9 -1 -9 6 0 6 -8 9 -20 6 -11 -3 -20 -1 -20 4 0 15 33 10 61 -9z
m305 -272 c0 -12 -4 -16 -9 -11 -5 5 -6 14 -3 20 10 15 12 14 12 -9z m-449
-37 c-4 -3 -3 -11 2 -17 9 -12 21 -56 15 -56 -2 0 -11 14 -19 30 -14 28 -13
50 2 50 4 0 3 -3 0 -7z m55 -25 c-7 -7 -12 -21 -13 -32 -1 -18 -2 -17 -8 4 -5
18 -3 27 8 32 24 10 26 9 13 -4z m25 -13 c-5 -11 -1 -12 19 -5 18 7 23 7 18
-1 -4 -8 1 -9 17 -5 13 3 18 3 12 0 -7 -3 -13 -10 -13 -15 0 -6 10 -5 23 2
l22 12 -23 -26 c-19 -20 -22 -32 -18 -61 9 -53 0 -44 -19 19 -17 61 -27 72
-20 23 l5 -33 -15 35 c-14 32 -15 33 -11 7 5 -38 -10 -21 -17 20 -6 28 -1 37
22 42 2 1 1 -6 -2 -14z m118 -45 c4 -6 16 -8 27 -4 14 4 18 3 13 -6 -4 -6 -16
-10 -26 -7 -10 3 -21 2 -23 -2 -3 -4 15 -7 40 -7 25 -1 40 2 34 6 -8 5 -6 9 5
13 9 4 14 3 10 -3 -4 -6 7 -15 24 -21 17 -6 31 -16 31 -21 0 -7 -5 -7 -13 1
-10 8 -18 7 -32 -3 -14 -10 -15 -15 -5 -21 9 -5 11 -4 6 3 -4 7 -1 12 8 12 8
0 18 -5 22 -12 4 -6 3 -8 -4 -4 -6 3 -13 2 -17 -4 -4 -7 -13 -6 -28 1 -14 8
-22 8 -25 1 -4 -13 -40 -4 -45 12 -2 6 -3 3 -2 -6 2 -10 -1 -18 -6 -18 -5 0
-9 9 -9 19 0 11 -4 22 -9 25 -4 3 -6 -6 -3 -21 7 -38 -15 -20 -23 19 -6 24 -3
35 11 45 22 16 31 16 39 3z m942 -143 c-6 -15 -15 -27 -19 -27 -9 0 4 44 16
52 16 11 17 4 3 -25z m69 -15 c-18 -16 -18 -16 -6 6 6 13 14 21 18 18 3 -4 -2
-14 -12 -24z m-1230 -57 c9 -7 3 -14 -20 -23 -30 -12 -30 -12 -3 -7 17 4 26 2
23 -4 -3 -5 0 -12 6 -15 7 -3 3 -3 -9 0 -13 3 -23 2 -23 -3 0 -4 -10 -19 -21
-33 -11 -14 -18 -20 -15 -13 4 6 2 14 -4 18 -6 4 -8 11 -4 16 3 5 0 8 -7 7
-22 -5 -20 22 4 46 25 25 53 29 73 11z m-321 -45 c3 -6 -1 -7 -9 -4 -18 7 -21
14 -7 14 6 0 13 -4 16 -10z m375 -25 c-7 -9 -19 -14 -27 -11 -8 3 -11 1 -8 -4
3 -6 1 -10 -4 -10 -18 0 -12 28 7 33 38 10 45 8 32 -8z m937 -22 c-3 -10 -5
-4 -5 12 0 17 2 24 5 18 2 -7 2 -21 0 -30z m-1000 5 c-3 -8 -6 -5 -6 6 -1 11
2 17 5 13 3 -3 4 -12 1 -19z m57 -30 c-16 -18 -16 -20 -2 -15 18 7 31 -15 22
-38 -5 -13 -10 -12 -28 7 -12 13 -20 29 -17 37 3 9 0 12 -7 7 -7 -4 -12 -5
-12 -2 0 8 54 35 59 30 2 -2 -4 -14 -15 -26z m1190 -9 c-3 -5 -13 -8 -22 -8
-15 1 -15 2 1 6 15 4 16 7 5 21 -12 15 -11 16 4 3 10 -7 15 -17 12 -22z m-456
13 c7 -5 11 -26 10 -50 -2 -50 -17 -45 -19 6 l-2 37 -7 -35 c-4 -19 -8 -27 -9
-18 0 9 -6 20 -13 24 -7 4 -8 3 -4 -5 4 -6 4 -21 0 -34 l-8 -22 -7 25 -7 25
-1 -28 c-1 -33 -21 -27 -21 6 0 16 -3 19 -9 8 -6 -9 -8 -2 -7 20 1 30 5 35 36
40 52 9 54 9 68 1z m44 -40 c3 -11 0 -19 -8 -19 -8 0 -14 9 -14 19 0 10 4 18
9 18 5 0 11 -8 13 -18z m-288 -8 c10 -27 7 -38 -7 -26 -10 9 -13 3 -11 -28 2
-35 0 -38 -15 -30 -20 10 -20 32 -1 73 15 31 25 34 34 11z m-326 -37 c12 -15
12 -57 0 -57 -5 0 -13 12 -19 27 -6 15 -16 31 -22 35 -8 5 -4 8 9 8 12 0 26
-6 32 -13z m-45 -37 c3 -11 1 -18 -4 -14 -5 3 -9 12 -9 20 0 20 7 17 13 -6z
m377 -1 c0 -6 -4 -7 -10 -4 -5 3 -10 11 -10 16 0 6 5 7 10 4 6 -3 10 -11 10
-16z m-40 -29 c0 -5 -2 -10 -4 -10 -3 0 -8 5 -11 10 -3 6 -1 10 4 10 6 0 11
-4 11 -10z m33 -14 c3 -8 1 -17 -6 -19 -9 -3 -8 -8 2 -21 8 -9 12 -19 9 -22
-10 -9 -38 45 -32 60 8 20 20 20 27 2z m-193 -61 c0 -5 -5 -3 -10 5 -5 8 -10
20 -10 25 0 6 5 3 10 -5 5 -8 10 -19 10 -25z m170 11 c0 -3 -4 -8 -10 -11 -5
-3 -10 -1 -10 4 0 6 5 11 10 11 6 0 10 -2 10 -4z m-410 -70 c0 4 5 3 12 -4 8
-8 8 -15 -2 -27 -14 -17 -50 -21 -50 -5 0 6 -5 10 -11 10 -5 0 -7 -6 -3 -12 4
-7 3 -10 -1 -5 -14 13 -13 47 2 47 8 0 11 5 7 11 -3 6 5 3 20 -6 14 -10 26
-14 26 -9z m1096 -68 c4 -6 2 -14 -4 -16 -7 -2 -12 -12 -12 -21 0 -19 -27 -24
-47 -9 -7 5 -18 6 -24 2 -8 -4 -9 -3 -5 5 4 6 16 9 27 6 28 -9 23 2 -8 20 -16
9 -20 14 -11 11 10 -3 28 -1 40 4 31 12 36 12 44 -2z m-1561 -8 c3 -5 1 -10
-4 -10 -6 0 -11 5 -11 10 0 6 2 10 4 10 3 0 8 -4 11 -10z m675 -14 c0 -2 -7
-7 -16 -10 -8 -3 -12 -2 -9 4 6 10 25 14 25 6z m-57 -25 c-5 -18 -43 -26 -43
-9 0 13 20 19 20 6 0 -8 5 -6 11 5 13 22 18 22 12 -2z m97 -1 c-8 -5 -22 -9
-30 -9 -10 0 -8 3 5 9 27 12 43 12 25 0z m-180 -44 c0 -3 -6 -6 -14 -6 -8 0
-16 -3 -19 -7 -2 -5 -2 -3 -1 4 2 7 -2 15 -8 19 -7 4 -6 9 3 14 11 7 39 -10
39 -24z m215 25 c-11 -5 -23 -7 -27 -5 -4 3 -9 0 -13 -5 -3 -6 3 -8 15 -6 11
2 22 0 25 -5 3 -4 22 -4 42 1 41 9 77 11 56 2 -20 -8 -15 -20 8 -19 17 1 22
-5 24 -29 1 -16 5 -39 9 -50 6 -15 6 -17 -3 -5 -5 8 -13 11 -17 7 -4 -4 -19 3
-33 15 l-25 23 17 -27 c9 -15 17 -30 17 -34 0 -14 -43 32 -57 61 -13 28 -14
29 -10 4 2 -17 -1 -26 -10 -26 -7 0 -11 2 -9 4 6 6 -55 63 -67 63 -5 0 -4 -7
3 -15 11 -13 10 -14 -4 -9 -9 3 -16 15 -16 25 0 21 31 38 70 38 23 0 23 -1 5
-8z m-275 -26 c0 -8 -2 -15 -4 -15 -2 0 -6 7 -10 15 -3 8 -1 15 4 15 6 0 10
-7 10 -15z m-560 -5 c-8 -5 -22 -9 -30 -9 -10 0 -8 3 5 9 27 12 43 12 25 0z
m1346 -15 c-3 -9 0 -15 9 -15 8 0 15 6 16 13 0 10 2 10 6 0 2 -7 11 -13 19
-13 22 0 17 -14 -17 -46 l-31 -29 17 33 c21 43 13 51 -19 19 -22 -22 -25 -23
-29 -6 -3 10 0 17 6 16 6 -1 12 4 13 11 1 6 2 17 3 22 0 6 4 10 7 10 3 0 4 -7
0 -15z m104 -13 c0 -4 -11 -23 -25 -42 -29 -40 -32 -35 -8 15 15 32 33 47 33
27z m11 -25 c-10 -9 -11 -8 -5 6 3 10 9 15 12 12 3 -3 0 -11 -7 -18z m49 10
c0 -2 -12 -14 -27 -28 -24 -22 -24 -13 0 19 8 11 27 17 27 9z m-1029 -180
c-10 -9 -11 -8 -5 6 3 10 9 15 12 12 3 -3 0 -11 -7 -18z m1218 9 c11 -7 11
-10 -3 -18 -11 -6 -14 -17 -10 -35 6 -23 5 -25 -17 -18 -13 4 -28 13 -34 19
-5 7 -15 11 -21 9 -6 -2 -19 9 -29 24 l-18 28 26 -18 c33 -22 37 -21 37 2 0
14 7 18 28 17 15 -1 33 -5 41 -10z m-1374 -16 c3 -6 -1 -7 -9 -4 -18 7 -21 14
-7 14 6 0 13 -4 16 -10z m-7 -63 c-1 -2 4 -12 12 -22 13 -17 13 -18 0 -11 -8
4 -4 -2 9 -13 23 -21 21 -25 -12 -21 -9 1 -16 -2 -15 -7 2 -4 -1 -8 -7 -8 -5
0 -9 9 -7 20 2 11 3 28 3 38 0 9 5 17 10 17 6 0 7 6 3 13 -4 6 -4 9 0 5 4 -3
6 -8 4 -11z m1706 5 c3 -5 -1 -9 -9 -9 -8 0 -12 4 -9 9 3 4 7 8 9 8 2 0 6 -4
9 -8z m-1846 -58 c3 -16 1 -16 -7 -4 -9 12 -11 9 -12 -15 0 -16 -3 -24 -6 -17
-2 6 -9 10 -14 6 -5 -3 -13 6 -19 20 -5 14 -12 26 -15 26 -4 0 -3 -5 1 -12 4
-7 3 -8 -4 -4 -16 10 -15 33 1 39 21 8 72 -18 75 -39z m1502 31 c-6 -8 -8 -20
-4 -26 5 -8 3 -9 -6 -4 -10 6 -12 3 -7 -11 6 -17 6 -17 -5 -3 -7 9 -19 15 -26
13 -7 -1 -8 0 -2 3 5 2 7 10 4 15 -4 7 -2 8 4 4 6 -3 17 0 24 8 17 20 34 21
18 1z m162 -37 c-7 -7 -12 -8 -12 -2 0 6 3 14 7 17 3 4 9 5 12 2 2 -3 -1 -11
-7 -17z m-562 -69 c0 -4 -8 -9 -17 -13 -10 -3 -23 -8 -29 -11 -7 -4 -9 5 -6
25 4 26 7 29 20 18 14 -11 15 -10 9 7 -7 20 -7 20 8 1 8 -11 15 -23 15 -27z
m194 -93 c-9 -43 -24 -57 -24 -22 0 19 -6 29 -20 33 -24 6 -25 16 -4 38 15 15
18 15 36 -1 14 -14 17 -25 12 -48z m473 48 c-3 -3 -12 -4 -19 -1 -8 3 -5 6 6
6 11 1 17 -2 13 -5z m-957 -79 c0 -5 -9 4 -20 20 -23 34 -27 13 -5 -25 18 -32
19 -51 0 -26 -8 10 -19 15 -26 10 -7 -4 -10 -3 -5 4 4 7 -5 10 -27 9 -31 -2
-33 -4 -23 -22 6 -11 15 -23 21 -27 5 -4 7 -10 4 -13 -4 -3 -18 10 -33 29 -16
22 -22 37 -15 41 6 4 13 5 16 2 3 -3 15 5 28 19 12 13 27 24 34 24 6 0 11 6
11 13 0 6 9 -1 20 -18 11 -16 20 -34 20 -40z m1186 23 c4 -7 3 -8 -4 -4 -7 4
-12 2 -12 -5 0 -7 -3 -10 -6 -6 -6 5 3 27 11 27 2 0 7 -5 11 -12z m-1448 -23
c-6 -14 -13 -23 -15 -21 -5 5 15 46 22 46 3 0 -1 -11 -7 -25z m-415 -95 c-3
-11 -7 -20 -9 -20 -2 0 -4 9 -4 20 0 11 4 20 9 20 5 0 7 -9 4 -20z m-563 6 c0
-3 -4 -8 -10 -11 -5 -3 -10 -1 -10 4 0 6 5 11 10 11 6 0 10 -2 10 -4z m1437
-28 c-3 -8 -6 -5 -6 6 -1 11 2 17 5 13 3 -3 4 -12 1 -19z m-1236 -15 c13 -16
12 -17 -3 -4 -10 7 -18 15 -18 17 0 8 8 3 21 -13z m399 13 c0 -3 -4 -8 -10
-11 -5 -3 -10 -1 -10 4 0 6 5 11 10 11 6 0 10 -2 10 -4z m783 -51 c-3 -9 -8
-14 -10 -11 -3 3 -2 9 2 15 9 16 15 13 8 -4z m-683 -60 c-5 -6 -6 -16 -2 -21
4 -4 -1 -2 -10 5 -20 15 -24 26 -6 15 7 -5 9 -2 5 9 -4 11 -2 14 9 10 10 -4
12 -9 4 -18z m1355 -15 c-2 -27 -15 -38 -15 -13 0 16 8 33 15 33 1 0 1 -9 0
-20z m-1963 -105 c-6 -34 -12 -32 -12 6 0 16 4 28 9 25 4 -3 6 -17 3 -31z m48
11 c0 -24 -17 -28 -23 -6 -3 13 0 20 9 20 8 0 14 -6 14 -14z m104 -2 c-17 -14
-17 -15 -1 -10 9 3 25 9 35 12 14 5 14 3 -3 -11 -19 -16 -19 -17 15 -10 32 7
34 6 20 -10 -14 -17 -13 -17 8 -6 13 7 26 10 30 7 3 -3 0 -6 -6 -6 -6 0 -17
-10 -23 -22 l-12 -21 28 21 c35 28 56 29 25 2 -21 -18 -21 -20 -4 -21 22 0 69
-55 55 -63 -5 -3 -14 1 -21 9 -7 8 -17 12 -23 8 -5 -3 -7 -1 -4 4 4 6 -2 13
-14 16 -17 4 -19 2 -13 -16 6 -21 5 -21 -21 3 -16 14 -25 19 -21 13 4 -7 2
-13 -3 -13 -6 0 -11 4 -11 9 0 5 -7 12 -16 15 -8 3 -12 2 -9 -4 10 -17 -35 -1
-65 22 -27 21 -43 47 -20 33 6 -4 7 1 3 12 -6 14 -9 13 -19 -12 -12 -26 -13
-27 -14 -7 0 34 30 57 79 59 40 2 42 1 25 -13z m151 -54 c-3 -5 -12 -10 -18
-10 -7 0 -6 4 3 10 19 12 23 12 15 0z m25 -12 c-18 -15 -20 -19 -7 -15 13 5
25 0 38 -15 24 -29 26 -57 3 -33 -9 9 -28 24 -42 33 l-24 16 22 18 c31 25 40
22 10 -4z m1437 -28 c-2 -23 -8 -44 -12 -48 -4 -4 -6 0 -5 8 5 32 -1 41 -32
53 l-33 12 40 6 c22 3 42 7 43 8 2 0 2 -17 -1 -39z m-1197 15 c0 -2 -10 -9
-22 -15 -22 -11 -22 -10 -4 4 21 17 26 19 26 11z m-57 -12 c-7 -2 -19 -2 -25
0 -7 3 -2 5 12 5 14 0 19 -2 13 -5z m1227 -10 c0 -13 -20 -39 -20 -27 0 7 -7
14 -14 17 -9 4 -13 1 -11 -6 2 -7 -7 -25 -21 -42 -18 -21 -24 -24 -19 -10 17
46 17 53 -2 58 -11 2 -9 3 5 2 12 -1 25 2 28 6 6 11 54 12 54 2z m-1187 -15
c9 2 17 -1 17 -7 0 -6 -7 -7 -17 -4 -11 4 -14 3 -9 -5 12 -19 1 -14 -20 10
-12 13 -13 18 -4 12 8 -4 23 -7 33 -6z m1825 -2 c1 -2 -5 -22 -13 -46 -8 -23
-15 -52 -16 -64 0 -11 -7 2 -14 29 -7 28 -13 42 -14 33 0 -9 -7 -29 -13 -44
l-13 -28 -6 30 c-6 25 -7 23 -9 -16 -2 -38 -3 -41 -10 -20 l-8 25 -2 -25 c-2
-24 -3 -23 -10 5 l-8 30 -2 -35 c-1 -29 -3 -32 -10 -15 -5 11 -9 17 -11 13 -6
-24 -7 -30 -8 -55 -2 -24 -4 -25 -10 -9 -7 19 -8 19 -16 0 -4 -10 -7 -23 -6
-27 1 -5 -3 -6 -8 -3 -5 4 -12 0 -14 -6 -4 -9 -6 -8 -6 2 -1 9 4 21 10 27 8 8
6 11 -7 10 -13 -2 -18 4 -16 17 2 10 -1 15 -7 12 -5 -4 -12 -2 -15 3 -3 5 8
14 24 20 36 12 39 20 6 14 -13 -3 -26 0 -30 5 -4 6 2 8 14 5 29 -8 25 9 -7 30
-24 15 -25 17 -5 12 12 -4 22 -2 22 3 0 5 15 7 33 6 17 -2 24 -1 15 2 -45 14
-7 34 70 38 54 3 76 12 66 28 -5 7 2 9 22 4 16 -4 30 -9 32 -10z m-1870 -21
c-3 -3 -9 2 -12 12 -6 14 -5 15 5 6 7 -7 10 -15 7 -18z m1152 11 c0 -2 -7 -9
-15 -16 -13 -11 -14 -10 -9 4 5 14 24 23 24 12z m-56 -46 c-17 -33 -24 -38
-24 -16 0 13 25 46 35 46 2 0 -3 -13 -11 -30z m-311 -105 c-3 -9 -8 -14 -10
-11 -3 3 -2 9 2 15 9 16 15 13 8 -4z m34 -7 c-3 -8 -6 -5 -6 6 -1 11 2 17 5
13 3 -3 4 -12 1 -19z m-317 -2 c0 -3 -4 -8 -10 -11 -5 -3 -10 -1 -10 4 0 6 5
11 10 11 6 0 10 -2 10 -4z m-770 -10 c0 -2 -7 -7 -16 -10 -8 -3 -12 -2 -9 4 6
10 25 14 25 6z m-47 -21 c-3 -9 -8 -14 -10 -11 -3 3 -2 9 2 15 9 16 15 13 8
-4z m127 -3 c0 -10 -50 -35 -57 -28 -3 3 29 24 55 35 1 1 2 -3 2 -7z m703 -12
c3 -11 1 -18 -4 -14 -5 3 -9 12 -9 20 0 20 7 17 13 -6z m-810 -5 c-3 -9 -8
-14 -10 -11 -3 3 -2 9 2 15 9 16 15 13 8 -4z m101 -44 c-4 -18 -3 -22 4 -13 7
11 10 11 15 -2 5 -11 1 -16 -13 -16 -12 0 -20 7 -21 18 -1 16 -2 16 -6 0 -2
-10 -8 -18 -13 -18 -5 0 -7 8 -5 18 3 9 -1 4 -10 -13 l-15 -30 4 30 c3 17 5
33 5 37 1 3 9 8 19 10 36 8 42 5 36 -21z m-77 -13 c-3 -8 -6 -5 -6 6 -1 11 2
17 5 13 3 -3 4 -12 1 -19z m-209 -13 c-3 -3 -9 2 -12 12 -6 14 -5 15 5 6 7 -7
10 -15 7 -18z m2119 3 c-3 -8 -6 -5 -6 6 -1 11 2 17 5 13 3 -3 4 -12 1 -19z
m333 -28 c0 -4 -6 -12 -13 -18 -10 -8 -13 -6 -13 7 0 10 6 18 13 18 7 0 13 -4
13 -7z m217 -6 c-3 -3 -12 -4 -19 -1 -8 3 -5 6 6 6 11 1 17 -2 13 -5z m-357
-23 c0 -5 -12 -8 -26 -8 -18 0 -22 2 -13 8 18 11 39 11 39 0z m-440 -128 c0
-6 -4 -15 -10 -18 -5 -3 -10 0 -10 8 0 8 -7 20 -15 27 -8 7 -15 17 -15 22 0
13 49 -25 50 -39z m-1167 0 c-3 -7 -10 -10 -15 -7 -6 4 -5 -2 1 -14 16 -30 14
-34 -9 -20 -22 14 -25 29 -10 44 15 15 39 13 33 -3z m577 -13 c0 -5 -7 -7 -15
-4 -8 4 -15 8 -15 10 0 2 7 4 15 4 8 0 15 -4 15 -10z m-553 -35 c14 -43 9 -45
-11 -3 -18 36 -19 38 -8 38 5 0 13 -16 19 -35z m544 -16 c-9 -22 -10 -22 -10
-3 -1 11 2 24 6 27 12 12 14 0 4 -24z m-607 -5 c3 -8 2 -12 -4 -9 -6 3 -10 10
-10 16 0 14 7 11 14 -7z m-124 -59 c11 -13 10 -14 -4 -9 -9 3 -16 10 -16 15 0
13 6 11 20 -6z m2081 -28 c-10 -9 -11 -8 -5 6 3 10 9 15 12 12 3 -3 0 -11 -7
-18z m-1100 -24 c-6 -10 -19 -29 -31 -43 l-20 -25 17 43 c9 23 22 42 30 42 10
0 11 -4 4 -17z m639 -2 c0 -5 -9 -7 -20 -4 -11 3 -20 7 -20 9 0 2 9 4 20 4 11
0 20 -4 20 -9z m-720 -21 c0 -5 -4 -10 -10 -10 -5 0 -10 5 -10 10 0 6 5 10 10
10 6 0 10 -4 10 -10z m680 0 c0 -4 11 -5 25 -2 14 2 25 0 25 -5 0 -17 -13 -23
-27 -12 -10 9 -13 8 -13 0 0 -7 -5 -9 -12 -5 -7 4 -8 3 -4 -5 4 -6 2 -18 -4
-26 -7 -8 -9 -26 -6 -39 3 -14 1 -28 -6 -32 -7 -4 -8 -3 -4 4 4 7 3 12 -3 12
-8 0 -25 48 -26 75 0 6 -4 14 -10 18 -5 4 1 7 15 5 14 -2 24 2 23 8 -1 6 5 11
13 11 8 0 14 -3 14 -7z m-745 -40 c3 -5 1 -10 -4 -10 -6 0 -11 5 -11 10 0 6 2
10 4 10 3 0 8 -4 11 -10z m570 -8 c-3 -3 -11 0 -18 7 -9 10 -8 11 6 5 10 -3
15 -9 12 -12z m210 -12 l20 -25 -21 18 c-11 9 -24 14 -28 10 -4 -4 -4 1 0 10
3 10 7 17 8 15 1 -2 10 -14 21 -28z m-224 0 c6 0 7 -6 3 -12 -5 -9 -2 -9 9 1
15 12 17 11 17 -13 0 -23 -3 -26 -21 -21 -12 4 -19 3 -16 -1 3 -5 -6 -10 -19
-10 l-25 -2 23 20 c23 20 23 20 3 35 -17 14 -18 15 -2 9 10 -3 23 -6 28 -6z
m209 -54 c0 -6 -7 -1 -15 10 -8 10 -15 23 -15 28 0 6 7 1 15 -10 8 -10 15 -23
15 -28z m466 -58 c40 3 52 -13 22 -29 -21 -11 -22 -11 -9 4 17 22 7 22 -26 0
-17 -11 -24 -13 -19 -5 5 8 1 19 -10 28 -11 9 -12 12 -4 8 8 -4 29 -7 46 -6z
m50 -43 c-36 -19 -45 -19 -20 0 10 8 26 14 34 15 8 0 2 -7 -14 -15z m-3167
-52 c-13 -15 -12 -16 6 -9 15 5 17 4 8 -5 -18 -18 -35 -2 -22 22 6 12 13 18
16 15 3 -3 0 -13 -8 -23z m301 12 c0 -8 -7 -15 -15 -15 -13 0 -14 3 -3 15 16
18 18 18 18 0z m-95 -96 c-4 -5 0 -9 8 -9 7 0 24 -11 37 -25 13 -14 18 -25 12
-25 -7 0 -12 4 -12 9 0 5 -22 11 -50 15 -27 4 -52 12 -56 18 -4 6 -3 8 3 5 6
-4 14 0 17 9 3 8 10 12 16 9 5 -3 10 -1 10 5 0 6 5 8 10 5 6 -4 8 -11 5 -16z
m-5 -65 c13 -14 11 -14 -25 1 -53 21 -69 38 -25 25 19 -5 41 -17 50 -26z m550
26 c0 -5 -2 -10 -4 -10 -3 0 -8 5 -11 10 -3 6 -1 10 4 10 6 0 11 -4 11 -10z
m70 -6 c0 -8 -5 -12 -10 -9 -6 4 -8 11 -5 16 9 14 15 11 15 -7z m2184 -19 c33
-29 37 -37 26 -50 -17 -20 -34 -19 -26 3 6 16 5 16 -8 0 -15 -20 -31 -25 -20
-6 4 7 3 8 -5 4 -15 -10 -57 17 -72 46 -12 22 -11 22 7 8 10 -8 25 -22 32 -30
11 -13 12 -12 7 8 -7 23 -7 24 19 6 36 -23 42 -13 12 19 -35 38 -18 33 28 -8z
m-2280 9 c3 -8 2 -12 -4 -9 -6 3 -10 10 -10 16 0 14 7 11 14 -7z m2477 -29
c33 -18 37 -11 12 19 -15 16 -12 16 16 -4 30 -21 34 -21 28 -6 -7 17 -5 17 9
5 15 -12 14 -15 -12 -26 -16 -7 -34 -12 -39 -13 -6 0 -26 -14 -44 -31 -18 -16
-36 -27 -40 -24 -3 4 3 14 14 22 20 16 20 16 0 8 -49 -18 -60 -17 -30 4 36 25
16 28 -23 4 l-27 -17 24 27 c13 14 28 24 32 21 5 -3 9 0 9 5 0 6 -4 11 -10 11
-5 0 -10 5 -10 10 0 6 11 3 24 -5 14 -9 27 -12 30 -7 3 6 -1 12 -9 16 -8 3
-15 10 -15 16 0 6 7 4 16 -5 9 -8 29 -22 45 -30z m-603 9 c5 3 7 -6 4 -20 l-5
-26 41 21 c35 18 42 19 52 6 7 -8 17 -15 22 -15 6 0 4 7 -3 17 -13 15 -12 15
8 5 18 -10 24 -9 33 5 11 17 11 17 6 0 -4 -12 -2 -17 6 -14 7 2 26 -2 42 -10
18 -10 26 -10 21 -3 -6 9 -2 9 15 0 16 -9 19 -15 11 -23 -6 -6 -11 -18 -11
-27 0 -9 -7 -25 -16 -36 -14 -18 -15 -18 -9 6 5 22 5 23 -6 6 -9 -15 -13 -16
-21 -5 -7 11 -9 9 -5 -7 3 -13 -1 -21 -10 -21 -9 0 -13 7 -10 19 3 10 1 16 -4
12 -5 -3 -9 -11 -9 -19 0 -8 -4 -16 -9 -19 -5 -4 -7 4 -5 16 l5 23 -13 -23
-12 -23 -12 23 c-10 17 -13 19 -14 6 0 -9 -4 -20 -10 -23 -5 -3 -7 0 -4 8 5
15 4 15 -66 18 -32 1 -39 4 -25 9 11 4 23 6 28 3 4 -2 7 1 7 6 0 6 -12 11 -27
11 -25 0 -26 1 -8 14 18 13 18 14 -5 12 -20 -1 -24 4 -26 32 -2 28 0 31 12 21
12 -10 12 -14 2 -20 -9 -6 -9 -9 -1 -9 24 0 25 22 2 48 -21 24 -22 25 -2 8 12
-10 26 -15 31 -12z m449 14 c15 -6 33 -12 38 -12 21 -2 14 -18 -25 -55 -22
-21 -40 -35 -40 -31 0 3 5 11 12 18 20 20 18 46 -4 69 -24 26 -21 28 19 11z
m-153 -40 c-7 -11 -7 -11 -24 22 -13 25 -13 25 8 6 12 -10 19 -23 16 -28z
m-1464 28 c0 -3 -4 -8 -10 -11 -5 -3 -10 -1 -10 4 0 6 5 11 10 11 6 0 10 -2
10 -4z m-726 -32 c3 -8 2 -12 -4 -9 -6 3 -10 10 -10 16 0 14 7 11 14 -7z m440
-53 c-2 -3 -12 3 -22 13 -16 17 -16 18 5 5 12 -7 20 -15 17 -18z m2123 14 c21
-15 23 -25 9 -57 -15 -33 -166 -89 -166 -62 0 16 75 106 99 119 33 18 32 18
58 0z m-366 -18 c-10 -9 -11 -8 -5 6 3 10 9 15 12 12 3 -3 0 -11 -7 -18z
m-2693 0 c17 0 2 -13 -24 -21 -14 -4 -29 1 -45 14 l-24 20 40 -6 c22 -4 46 -7
53 -7z m-92 -18 c12 -10 12 -14 2 -20 -9 -6 -7 -9 7 -9 21 0 81 -65 67 -73
-15 -9 -104 21 -127 43 -53 50 -4 105 51 59z m131 -20 c-22 -12 -46 -17 -55
-14 -12 5 -4 11 28 20 65 18 70 17 27 -6z m2858 -9 c-3 -5 -12 -10 -18 -10 -7
0 -6 4 3 10 19 12 23 12 15 0z m-2873 -32 c-9 -9 -15 -9 -24 0 -9 9 -7 12 12
12 19 0 21 -3 12 -12z m50 -19 c-36 -13 -25 -18 19 -8 23 6 44 8 46 5 2 -2
-19 -9 -47 -16 -58 -14 -67 -11 -49 18 8 13 19 17 32 14 20 -5 20 -5 -1 -13z
m2786 -3 c3 -3 -9 -6 -26 -6 -18 0 -32 4 -32 9 0 9 48 6 58 -3z m-1851 -81
c-7 -14 -16 -25 -20 -25 -8 0 -2 14 16 38 15 19 16 14 4 -13z m-106 -22 c-14
-24 -55 -72 -45 -53 10 20 47 70 51 70 2 0 -1 -8 -6 -17z m159 10 c-1 -16 -29
-45 -47 -47 -12 -2 -18 -11 -18 -28 1 -13 -4 -25 -11 -25 -7 0 -10 7 -6 16 5
14 4 14 -12 2 -9 -8 -15 -20 -12 -28 3 -8 2 -12 -3 -8 -5 3 -12 -1 -15 -7 -5
-11 -7 -11 -12 0 -7 15 -24 6 -20 -11 1 -7 1 -8 -2 -3 -2 4 -8 2 -13 -5 -6
-10 -8 -6 -6 11 2 14 10 25 18 25 8 1 13 6 12 13 -2 7 3 11 10 10 6 -2 11 2
11 7 -1 6 10 21 24 35 l25 25 -17 -25 c-26 -40 -18 -48 13 -12 17 19 31 28 33
20 3 -7 12 -1 24 15 20 28 24 31 24 20z m797 -9 c-3 -3 -12 -4 -19 -1 -8 3 -5
6 6 6 11 1 17 -2 13 -5z m-939 -44 c-12 -19 -28 -27 -28 -14 0 6 30 33 38 34
1 0 -3 -9 -10 -20z m-563 -14 c-16 -7 -34 -11 -39 -8 -12 7 9 17 41 19 l28 2
-30 -13z m-5 -21 c0 -2 -10 -9 -22 -15 -22 -11 -22 -10 -4 4 21 17 26 19 26
11z m-9 -48 c-1 -4 -1 -14 -1 -22 0 -8 -6 -15 -14 -15 -9 0 -12 8 -8 25 4 22
25 33 23 12z"/>
<path d="M2935 4170 c-3 -6 1 -7 9 -4 18 7 21 14 7 14 -6 0 -13 -4 -16 -10z"/>
<path d="M3890 3486 c0 -2 7 -7 16 -10 8 -3 12 -2 9 4 -6 10 -25 14 -25 6z"/>
<path d="M3236 3337 c3 -10 9 -15 12 -12 3 3 0 11 -7 18 -10 9 -11 8 -5 -6z"/>
<path d="M3745 2911 c-3 -5 -1 -12 5 -16 5 -3 10 1 10 9 0 18 -6 21 -15 7z"/>
<path d="M4330 2356 c0 -2 9 -6 20 -9 11 -3 18 -1 14 4 -5 9 -34 13 -34 5z"/>
<path d="M4280 2316 c0 -2 7 -7 16 -10 8 -3 12 -2 9 4 -6 10 -25 14 -25 6z"/>
<path d="M4298 2233 c7 -3 16 -2 19 1 4 3 -2 6 -13 5 -11 0 -14 -3 -6 -6z"/>
<path d="M4371 1174 c0 -11 3 -14 6 -6 3 7 2 16 -1 19 -3 4 -6 -2 -5 -13z"/>
<path d="M2800 915 c-7 -9 -8 -15 -2 -15 5 0 12 7 16 15 3 8 4 15 2 15 -2 0
-9 -7 -16 -15z"/>
<path d="M3035 5280 c3 -5 8 -10 11 -10 2 0 4 5 4 10 0 6 -5 10 -11 10 -5 0
-7 -4 -4 -10z"/>
<path d="M3790 4915 c-9 -10 -9 -15 -1 -15 6 0 11 4 11 9 0 5 8 12 18 14 14 4
14 5 1 6 -9 0 -22 -6 -29 -14z"/>
<path d="M3959 4843 c-13 -16 -12 -17 4 -4 16 13 21 21 13 21 -2 0 -10 -8 -17
-17z"/>
<path d="M3973 4663 c4 -3 -1 -12 -11 -20 -15 -13 -15 -13 6 -3 19 9 23 30 5
30 -4 0 -3 -3 0 -7z"/>
<path d="M3898 4513 c7 -3 16 -2 19 1 4 3 -2 6 -13 5 -11 0 -14 -3 -6 -6z"/>
<path d="M2805 4410 c4 -6 11 -8 16 -5 14 9 11 15 -7 15 -8 0 -12 -5 -9 -10z"/>
<path d="M2640 4158 c0 -4 4 -8 9 -8 6 0 12 4 15 8 3 5 -1 9 -9 9 -8 0 -15 -4
-15 -9z"/>
<path d="M4535 3460 c3 -5 8 -10 11 -10 2 0 4 5 4 10 0 6 -5 10 -11 10 -5 0
-7 -4 -4 -10z"/>
<path d="M2285 3340 c-3 -6 1 -7 9 -4 18 7 21 14 7 14 -6 0 -13 -4 -16 -10z"/>
<path d="M4403 3306 c0 -8 8 -14 18 -13 14 1 15 4 7 14 -14 17 -25 16 -25 -1z"/>
<path d="M2435 3300 c-3 -6 1 -7 9 -4 18 7 21 14 7 14 -6 0 -13 -4 -16 -10z"/>
<path d="M4237 3123 c-4 -3 -7 -11 -7 -17 0 -6 5 -5 12 2 6 6 9 14 7 17 -3 3
-9 2 -12 -2z"/>
<path d="M2085 2310 c3 -5 11 -10 16 -10 6 0 7 5 4 10 -3 6 -11 10 -16 10 -6
0 -7 -4 -4 -10z"/>
<path d="M5148 1443 c7 -3 16 -2 19 1 4 3 -2 6 -13 5 -11 0 -14 -3 -6 -6z"/>
<path d="M5147 589 c7 -7 15 -10 18 -7 3 3 -2 9 -12 12 -14 6 -15 5 -6 -5z"/>
</g>
</svg>
